<svg xmlns="http://www.w3.org/2000/svg" viewBox="0 0 138 52">
  <path fill="#0097bc" d="m85.4 46.4-9.1-14.84c-.42-.92-.27-1.53.44-1.93a14.47 14.47 0 0 0 7.4-12.82A14.77 14.77 0 0 0 83 11.09a13.83 13.83 0 0 0-7.73-7.67 14.93 14.93 0 0 0-5.76-1.11H53.98a2.3 2.3 0 0 0-2.48 2.46v42.18a2.41 2.41 0 0 0 .67 1.79 2.46 2.46 0 0 0 1.81.66h2.65a2.46 2.46 0 0 0 1.81-.66 2.41 2.41 0 0 0 .66-1.8v-14.7c0-.4.16-.56.56-.56h7.21a1.42 1.42 0 0 1 1.41.94l9 14.63a3.16 3.16 0 0 0 3 2.15h3.5a1.88 1.88 0 0 0 1.76-.9 2.21 2.21 0 0 0-.14-2.1zm-8.8-29.6a7.83 7.83 0 0 1-.62 3.13 7.93 7.93 0 0 1-1.67 2.46 7.21 7.21 0 0 1-2.4 1.58 7.67 7.67 0 0 1-2.84.55h-9.33c-.4 0-.56-.16-.56-.56V10.03c0-.4.16-.55.56-.55h9.33a8.2 8.2 0 0 1 2.85.5 7.46 7.46 0 0 1 2.4 1.48 7.38 7.38 0 0 1 1.66 2.3 7.28 7.28 0 0 1 .6 3.05zm46.6 26.09a2.51 2.51 0 0 0-1.8-.65h-20.7c-.4 0-.57-.17-.57-.56V4.77a2.3 2.3 0 0 0-2.48-2.46H95a2.28 2.28 0 0 0-2.47 2.46v42.18a2.41 2.41 0 0 0 .66 1.79 2.46 2.46 0 0 0 1.81.66h26.4a2.46 2.46 0 0 0 1.8-.66 2.41 2.41 0 0 0 .66-1.8V44.7a2.45 2.45 0 0 0-.66-1.81zm13.65-39.92a2.47 2.47 0 0 0-1.8-.66h-2.67a2.29 2.29 0 0 0-2.47 2.46v42.18a2.29 2.29 0 0 0 2.47 2.45h2.66a2.46 2.46 0 0 0 1.81-.66 2.41 2.41 0 0 0 .66-1.8V4.78a2.43 2.43 0 0 0-.66-1.8zM45.41 39.7l-3.44-2.81a2 2 0 0 0-2.79.26 17.74 17.74 0 1 1-4.33-26.25L24.01 21.7h-7.5a2 2 0 0 0-2 2v4.23a2 2 0 0 0 2 2h10.17a2 2 0 0 0 1.41-.58l17-16.81a2.76 2.76 0 0 0 .14-3.8 25.85 25.85 0 1 0 .4 33.75 2 2 0 0 0-.27-2.8"/>
</svg>
